<?xml version="1.0" standalone="no"?>
<!DOCTYPE svg PUBLIC "-//W3C//DTD SVG 20010904//EN"
 "http://www.w3.org/TR/2001/REC-SVG-20010904/DTD/svg10.dtd">
<svg version="1.0" xmlns="http://www.w3.org/2000/svg"
 width="980.000000pt" height="930.000000pt" viewBox="0 0 980.000000 930.000000"
 preserveAspectRatio="xMidYMid meet">

<g transform="translate(0.000000,930.000000) scale(0.100000,-0.100000)"
fill="#000000" stroke="none">
<path d="M0 4650 l0 -4650 990 0 990 0 0 2583 c0 1420 -5 2785 -10 3032 -16
778 -30 1204 -45 1400 -12 153 -35 526 -35 583 0 6 10 12 23 12 22 0 26 -16
111 -382 194 -845 262 -1099 1109 -4133 l862 -3090 884 0 884 0 853 2975 c469
1636 876 3058 903 3160 98 361 201 843 272 1273 29 179 34 197 52 197 19 0 20
-5 13 -112 -18 -317 -47 -840 -58 -1053 -8 -170 -12 -1141 -15 -3342 l-4
-3103 1011 0 1010 0 0 4650 0 4650 -1578 0 -1577 0 -814 -3027 c-448 -1666
-820 -3044 -827 -3063 -7 -19 -20 -55 -29 -79 -24 -66 -44 -232 -55 -461 -6
-113 -18 -261 -28 -330 l-18 -125 -18 165 c-24 226 -73 615 -91 730 -8 52
-383 1465 -833 3140 l-819 3045 -1557 3 -1556 2 0 -4650z"/>
</g>
</svg>
